# xmcd
#
# Track frame offsets: 
#        300
#        87236
#        150996
#        207255
#        261511
#        311602
#
# Disc length: 4675 seconds
#
# Revision: 0
# Processed by: cddbd v1.5.2PL0 Copyright (c) Steve Scherf et al.
# Submitted via: ExactAudioCopy v0.95b4
#
DISCID=4a123f06
DTITLE=Evan Parker, Noel Akchote, Lawrence Casserley, Joel Ryan - Live
DTITLE=At Les Instants Chavires
DYEAR=1900
DGENRE=Jazz
TTITLE0=Instant 1
TTITLE1=Instant 2
TTITLE2=Instant 3
TTITLE3=Instant 4
TTITLE4=Instant 5
TTITLE5=Instant 6
EXTD=
EXTT0=
EXTT1=
EXTT2=
EXTT3=
EXTT4=
EXTT5=
PLAYORDER=
